<svg version="1.1" id="Layer_1" xmlns="http://www.w3.org/2000/svg" xmlns:xlink="http://www.w3.org/1999/xlink" x="0px" y="0px"
	 width="100%" viewBox="0 0 1500 1500" enable-background="new 0 0 1500 1500" xml:space="preserve">
<path fill="#000000" opacity="1.000000" stroke="none" 
	d="
M655.000000,1501.000000 
	C436.666718,1501.000000 218.833405,1501.000000 1.000088,1501.000000 
	C1.000058,1001.000122 1.000058,501.000244 1.000029,1.000289 
	C500.999786,1.000193 1000.999573,1.000193 1500.999512,1.000096 
	C1500.999756,500.999664 1500.999756,1000.999329 1500.999878,1500.999512 
	C1219.166626,1501.000000 937.333313,1501.000000 655.000000,1501.000000 
M1000.046387,933.634705 
	C980.935608,947.419800 960.340332,958.467712 938.140320,966.328796 
	C911.235535,975.855896 883.281250,979.576721 854.874512,979.606689 
	C749.545227,979.717712 644.215698,979.606018 538.886292,979.597473 
	C508.550110,979.594971 478.312317,980.608398 448.453217,986.872559 
	C428.192200,991.123108 408.672607,997.244629 390.224945,1006.792480 
	C369.020782,1017.766907 349.028229,1030.404541 331.639404,1046.934692 
	C313.518219,1064.161011 295.632751,1081.612061 283.303741,1103.703003 
	C273.288544,1121.648071 262.961914,1139.511108 258.088104,1159.780518 
	C255.072906,1172.320435 262.504272,1189.586914 273.640686,1196.209839 
	C292.690369,1207.538818 315.762695,1199.002075 324.666077,1177.879883 
	C330.773346,1163.390991 336.138977,1148.206909 344.669037,1135.190063 
	C377.003479,1085.847656 424.216583,1059.118896 481.716217,1050.179565 
	C497.398865,1047.741211 513.562622,1047.829468 529.509766,1047.763428 
	C584.999207,1047.533813 640.490356,1047.783203 695.980896,1047.777588 
	C742.306824,1047.772827 788.634033,1047.851196 834.958191,1047.531372 
	C860.934753,1047.351929 886.898376,1046.740601 912.679565,1042.648926 
	C943.789917,1037.711670 973.243408,1027.824585 1001.290894,1013.764221 
	C1045.963013,991.369812 1079.447510,956.659241 1107.091797,915.857910 
	C1125.428955,888.793396 1137.729614,859.044556 1145.431152,827.256165 
	C1150.908691,804.648621 1153.784180,781.810242 1153.796997,758.596863 
	C1153.833740,692.265320 1153.795532,625.933716 1153.780640,559.602173 
	C1153.773315,527.436768 1153.751099,495.271332 1153.740479,463.105896 
	C1153.739746,460.767548 1153.636353,458.842468 1156.771851,457.747986 
	C1193.009644,445.098480 1212.178345,417.939514 1217.843018,381.459015 
	C1222.425659,351.946899 1211.876709,326.028046 1192.206421,303.991089 
	C1176.155640,286.008911 1156.213257,275.050201 1132.079468,271.501434 
	C1114.900879,268.975433 1097.979370,269.609070 1082.104614,276.217468 
	C1050.048462,289.561951 1028.134399,312.416656 1020.087585,347.091339 
	C1014.264648,372.183289 1018.756409,395.615051 1031.727661,417.545349 
	C1042.715454,436.122406 1058.753296,448.850159 1078.711182,456.726562 
	C1082.879272,458.371521 1085.710449,460.217133 1085.661621,465.551697 
	C1085.445190,489.208069 1085.680176,512.868225 1085.639771,536.526794 
	C1085.599609,560.021973 1085.302734,583.517090 1085.335938,607.011902 
	C1085.402954,654.502930 1085.804199,701.994385 1085.648193,749.484253 
	C1085.605713,762.422302 1085.226074,775.559204 1082.990601,788.250732 
	C1077.335449,820.357300 1066.210205,850.665527 1049.936523,879.017395 
	C1037.477295,900.723877 1020.998352,918.723999 1000.046387,933.634705 
z"/>
<path fill="#FDFDFD" opacity="1.000000" stroke="none" 
	d="
M1000.311279,933.391785 
	C1020.998352,918.723999 1037.477295,900.723877 1049.936523,879.017395 
	C1066.210205,850.665527 1077.335449,820.357300 1082.990601,788.250732 
	C1085.226074,775.559204 1085.605713,762.422302 1085.648193,749.484253 
	C1085.804199,701.994385 1085.402954,654.502930 1085.335938,607.011902 
	C1085.302734,583.517090 1085.599609,560.021973 1085.639771,536.526794 
	C1085.680176,512.868225 1085.445190,489.208069 1085.661621,465.551697 
	C1085.710449,460.217133 1082.879272,458.371521 1078.711182,456.726562 
	C1058.753296,448.850159 1042.715454,436.122406 1031.727661,417.545349 
	C1018.756409,395.615051 1014.264648,372.183289 1020.087585,347.091339 
	C1028.134399,312.416656 1050.048462,289.561951 1082.104614,276.217468 
	C1097.979370,269.609070 1114.900879,268.975433 1132.079468,271.501434 
	C1156.213257,275.050201 1176.155640,286.008911 1192.206421,303.991089 
	C1211.876709,326.028046 1222.425659,351.946899 1217.843018,381.459015 
	C1212.178345,417.939514 1193.009644,445.098480 1156.771851,457.747986 
	C1153.636353,458.842468 1153.739746,460.767548 1153.740479,463.105896 
	C1153.751099,495.271332 1153.773315,527.436768 1153.780640,559.602173 
	C1153.795532,625.933716 1153.833740,692.265320 1153.796997,758.596863 
	C1153.784180,781.810242 1150.908691,804.648621 1145.431152,827.256165 
	C1137.729614,859.044556 1125.428955,888.793396 1107.091797,915.857910 
	C1079.447510,956.659241 1045.963013,991.369812 1001.290894,1013.764221 
	C973.243408,1027.824585 943.789917,1037.711670 912.679565,1042.648926 
	C886.898376,1046.740601 860.934753,1047.351929 834.958191,1047.531372 
	C788.634033,1047.851196 742.306824,1047.772827 695.980896,1047.777588 
	C640.490356,1047.783203 584.999207,1047.533813 529.509766,1047.763428 
	C513.562622,1047.829468 497.398865,1047.741211 481.716217,1050.179565 
	C424.216583,1059.118896 377.003479,1085.847656 344.669037,1135.190063 
	C336.138977,1148.206909 330.773346,1163.390991 324.666077,1177.879883 
	C315.762695,1199.002075 292.690369,1207.538818 273.640686,1196.209839 
	C262.504272,1189.586914 255.072906,1172.320435 258.088104,1159.780518 
	C262.961914,1139.511108 273.288544,1121.648071 283.303741,1103.703003 
	C295.632751,1081.612061 313.518219,1064.161011 331.639404,1046.934692 
	C349.028229,1030.404541 369.020782,1017.766907 390.224945,1006.792480 
	C408.672607,997.244629 428.192200,991.123108 448.453217,986.872559 
	C478.312317,980.608398 508.550110,979.594971 538.886292,979.597473 
	C644.215698,979.606018 749.545227,979.717712 854.874512,979.606689 
	C883.281250,979.576721 911.235535,975.855896 938.140320,966.328796 
	C960.340332,958.467712 980.935608,947.419800 1000.311279,933.391785 
z"/>
</svg>