<svg width="390" height="50" viewBox="0 0 390 50" fill="none" xmlns="http://www.w3.org/2000/svg">
<g clip-path="url(#clip0_96_387)">
<path d="M203.737 3.80859H208.325L199.149 37.9883H194.658L187.337 15.4297H187.141L179.722 37.9883H175.232L165.762 3.80859H170.35L177.574 30.6641H177.77L185.189 8.39844H189.289L196.708 30.6641H196.904L203.737 3.80859Z" fill="#5F6368"/>
<mask id="mask0_96_387" style="mask-type:luminance" maskUnits="userSpaceOnUse" x="0" y="0" width="391" height="50">
<path d="M0 0H390.098V50H0V0Z" fill="white"/>
</mask>
<g mask="url(#mask0_96_387)">
<path d="M207.837 26.2695C207.837 22.6888 208.976 19.7266 211.254 17.3828C213.532 15.0391 216.428 13.8672 219.942 13.8672C223.457 13.8672 226.32 15.0391 228.533 17.3828C230.811 19.7266 231.95 22.6888 231.95 26.2695C231.95 29.9154 230.811 32.9102 228.533 35.2539C226.255 37.5977 223.392 38.7695 219.942 38.7695C216.493 38.7695 213.597 37.5977 211.254 35.2539C208.976 32.9102 207.837 29.9154 207.837 26.2695ZM212.23 26.2695C212.23 28.8086 212.979 30.8594 214.476 32.4219C215.972 33.9844 217.795 34.7656 219.942 34.7656C222.09 34.7656 223.912 33.9844 225.409 32.4219C226.906 30.8594 227.622 28.8086 227.557 26.2695C227.557 23.7956 226.841 21.7773 225.409 20.2148C223.912 18.6523 222.09 17.8711 219.942 17.8711C217.795 17.8711 215.972 18.6523 214.476 20.2148C212.979 21.7773 212.23 23.7956 212.23 26.2695ZM239.467 37.9883H235.074V14.5508H239.272V18.457H239.467C239.922 17.1549 240.866 16.0807 242.298 15.2344C243.73 14.388 245.096 13.9323 246.398 13.8672C247.635 13.8672 248.708 14.0625 249.62 14.4531L248.253 18.75C247.732 18.5547 246.886 18.457 245.715 18.457C244.023 18.457 242.558 19.1081 241.322 20.4102C240.085 21.7122 239.467 23.2747 239.467 25.0977V37.9883ZM272.268 37.9883H266.899L259.675 26.9531L256.063 30.5664V37.9883H251.67V3.80859H256.063V24.9023L266.215 14.5508H271.78V14.7461L262.701 23.8281L272.268 37.793V37.9883Z" fill="#5F6368"/>
<path d="M291.304 31.543C291.304 33.5612 290.426 35.2865 288.668 36.7188C286.911 38.151 284.633 38.8346 281.835 38.7695C279.492 38.7695 277.442 38.151 275.685 36.9141C273.954 35.7482 272.625 34.0774 271.877 32.1289L275.782 30.4688C276.368 31.8359 277.181 32.9102 278.223 33.6914C279.27 34.4595 280.536 34.8704 281.835 34.8633C283.267 34.8633 284.438 34.5703 285.349 33.9844C286.26 33.3984 286.748 32.6823 286.814 31.8359C286.814 30.3385 285.675 29.2318 283.397 28.5156L279.297 27.5391C274.741 26.3672 272.463 24.1536 272.463 20.8984C272.463 18.75 273.342 17.0247 275.099 15.7227C276.856 14.4206 279.069 13.7695 281.737 13.7695C283.82 13.7695 285.707 14.2904 287.399 15.332C289.091 16.3737 290.263 17.6758 290.914 19.2383L287.009 20.8984C286.568 19.9034 285.814 19.0802 284.861 18.5547C283.809 18.0016 282.632 17.7323 281.444 17.7734C280.349 17.7259 279.264 17.9973 278.32 18.5547C277.409 19.1406 276.954 19.8568 276.954 20.7031C276.954 22.0703 278.223 23.0143 280.761 23.5352L284.275 24.5117C288.961 25.6185 291.304 27.9622 291.304 31.543ZM306.533 38.7695C304.841 38.7695 303.279 38.4115 301.847 37.6953C300.416 36.9792 299.342 36.0026 298.626 34.7656H298.431L298.626 37.9883V48.3398H294.233V14.5508H298.431V17.8711H298.626C299.342 16.6341 300.416 15.6576 301.847 14.9414C303.279 14.2253 304.874 13.8672 306.631 13.8672C309.69 13.8672 312.293 15.0716 314.441 17.4805C316.653 19.8893 317.76 22.819 317.76 26.2695C317.76 29.7852 316.653 32.7474 314.441 35.1562C312.293 37.5651 309.69 38.7695 306.631 38.7695M305.85 34.7656C307.997 34.7656 309.787 33.9844 311.219 32.4219C312.651 30.8594 313.367 28.8086 313.367 26.2695C313.367 23.8607 312.651 21.8424 311.219 20.2148C309.787 18.5872 307.997 17.806 305.85 17.8711C303.702 17.8711 301.912 18.6523 300.481 20.2148C299.114 21.8424 298.431 23.8607 298.431 26.2695C298.431 28.8086 299.114 30.8594 300.481 32.4219C301.912 33.9844 303.702 34.7656 305.85 34.7656ZM329.767 13.8672C333.021 13.8672 335.592 14.7135 337.479 16.4062C339.367 18.099 340.31 20.4753 340.31 23.5352V37.9883H336.113V34.7656H335.917C334.095 37.4349 331.655 38.7695 328.596 38.7695C326.058 38.7695 323.91 38.0208 322.153 36.5234C320.395 35.026 319.517 33.1055 319.517 30.7617C319.517 28.3529 320.428 26.4323 322.25 25C324.073 23.5677 326.546 22.8516 329.67 22.8516C332.273 22.8516 334.421 23.3073 336.113 24.2188V23.2422C336.113 21.6797 335.494 20.3776 334.258 19.3359C333.1 18.314 331.604 17.7574 330.06 17.7734C327.587 17.7734 325.635 18.8151 324.203 20.8984L320.298 18.457C322.446 15.3971 325.602 13.8672 329.767 13.8672ZM324.105 30.8594C324.105 32.0312 324.593 32.9753 325.569 33.6914C326.546 34.4076 327.685 34.7982 328.986 34.8633C330.809 34.8633 332.436 34.1797 333.867 32.8125C335.299 31.4453 336.048 29.8503 336.113 28.0273C334.746 26.9206 332.826 26.3672 330.353 26.3672C328.596 26.3672 327.099 26.7904 325.862 27.6367C324.626 28.4831 324.04 29.5573 324.105 30.8594ZM355.247 38.7695C351.732 38.7695 348.836 37.5977 346.558 35.2539C344.28 32.8451 343.141 29.8503 343.141 26.2695C343.141 22.6888 344.28 19.7266 346.558 17.3828C348.836 15.0391 351.732 13.8672 355.247 13.8672C357.655 13.8672 359.737 14.4531 361.494 15.625C363.252 16.7969 364.586 18.457 365.497 20.6055L361.494 22.2656C360.258 19.3359 358.078 17.8711 354.954 17.8711C352.936 17.8711 351.179 18.6849 349.682 20.3125C348.25 21.9401 347.534 23.9258 347.534 26.2695C347.534 28.6133 348.25 30.6315 349.682 32.3242C351.179 33.9518 352.936 34.7656 354.954 34.7656C358.143 34.7656 360.388 33.3008 361.69 30.3711L365.692 32.0312C364.781 34.1797 363.414 35.8398 361.592 37.0117C359.77 38.1836 357.655 38.7695 355.247 38.7695ZM378.871 38.7695C375.422 38.7695 372.591 37.5977 370.378 35.2539C368.165 32.9102 367.059 29.9154 367.059 26.2695C367.059 22.7539 368.133 19.7917 370.28 17.3828C372.428 14.974 375.194 13.8021 378.578 13.8672C382.093 13.8672 384.859 14.974 386.876 17.1875C388.894 19.401 389.935 22.5586 390 26.6602V27.1484H371.549C371.615 29.4271 372.363 31.2826 373.795 32.7148C375.227 34.1471 376.984 34.8307 379.066 34.7656C381.865 34.7656 384.078 33.3659 385.705 30.5664L389.61 32.5195C388.596 34.425 387.075 36.0134 385.217 37.1094C383.394 38.2161 381.279 38.7695 378.871 38.7695ZM371.842 23.4375H385.314C385.184 21.8099 384.533 20.4753 383.362 19.4336C382.19 18.3919 380.563 17.8711 378.481 17.8711C376.854 17.8711 375.454 18.3594 374.283 19.3359C373.111 20.3125 372.298 21.6797 371.842 23.4375Z" fill="#5F6368"/>
</g>
<mask id="mask1_96_387" style="mask-type:luminance" maskUnits="userSpaceOnUse" x="0" y="0" width="391" height="50">
<path d="M0 0H390.098V50H0V0Z" fill="white"/>
</mask>
<g mask="url(#mask1_96_387)">
<path d="M19.7196 23.0469V17.6758H37.4869C37.6906 18.7706 37.7886 19.8825 37.7797 20.9961C37.7797 24.9023 36.7059 29.8828 33.1915 33.3008C29.7747 36.9141 25.4793 38.7695 19.622 38.7695C8.98123 38.7695 0 30.0781 0 19.4336C0 8.78906 8.98123 0 19.622 0C25.577 0 29.7747 2.34375 32.9962 5.37109L29.189 9.08203C27.2058 7.18871 24.706 5.9261 22.0056 5.45384C19.3052 4.98158 16.5254 5.32087 14.0177 6.42881C11.5101 7.53676 9.38709 9.36361 7.91719 11.6784C6.44729 13.9932 5.69649 16.692 5.7597 19.4336C5.7597 27.2461 11.9099 33.4961 19.622 33.4961C24.6984 33.4961 27.627 31.4453 29.4819 29.5898C30.9462 28.125 31.9224 25.9766 32.3129 23.0469H19.7196Z" fill="#4285F4"/>
<path d="M64.821 26.2695C64.821 33.4961 59.1589 38.7695 52.2278 38.7695C45.2966 38.7695 39.7322 33.4961 39.7322 26.2695C39.7322 19.043 45.3942 13.7695 52.2278 13.7695C59.0613 13.7695 64.821 19.043 64.821 26.2695ZM59.2566 26.2695C59.2566 21.7773 56.035 18.75 52.2278 18.75C48.4205 18.75 45.199 21.7773 45.199 26.2695C45.199 30.7617 48.5181 33.8867 52.2278 33.8867C55.9374 33.8867 59.2566 30.7617 59.2566 26.2695Z" fill="#EA4335"/>
<path d="M92.1552 26.2695C92.1552 33.4961 86.4931 38.7695 79.5619 38.7695C72.6308 38.7695 67.0663 33.4961 67.0663 26.2695C67.0663 19.043 72.7284 13.7695 79.5619 13.7695C86.3955 13.7695 92.1552 19.043 92.1552 26.2695ZM86.5907 26.2695C86.5907 21.7773 83.3692 18.75 79.5619 18.75C75.7547 18.75 72.5332 21.7773 72.5332 26.2695C72.5332 30.7617 75.8523 33.8867 79.5619 33.8867C83.2716 33.8867 86.5907 30.7617 86.5907 26.2695Z" fill="#FBBC04"/>
<path d="M118.318 14.5508V37.0117C118.318 46.1914 112.851 50 106.408 50C100.355 50 96.7434 45.8984 95.3767 42.5781L100.16 40.625C101.039 42.6758 103.089 45.1172 106.408 45.1172C110.606 45.1172 113.144 42.4805 113.144 37.793V35.9375H112.949C112.118 36.8682 111.092 37.6045 109.945 38.0939C108.798 38.5834 107.557 38.8141 106.31 38.7695C100.16 38.7695 94.4005 33.3008 94.4005 26.3672C94.4005 19.3359 100.16 13.7695 106.31 13.7695C109.337 13.7695 111.68 15.1367 112.949 16.6016H113.144V14.5508H118.318ZM113.534 26.3672C113.534 21.9727 110.606 18.75 106.798 18.75C103.089 18.75 99.8673 21.9727 99.8673 26.3672C99.8673 30.6641 103.089 33.8867 106.798 33.8867C110.606 33.8867 113.534 30.6641 113.534 26.3672Z" fill="#4285F4"/>
<path d="M122.125 1.46484H127.592V38.0859H122.125V1.46484Z" fill="#34A853"/>
<path d="M148.776 30.3711L153.071 33.3008C151.705 35.2539 148.385 38.7695 142.626 38.7695C135.499 38.7695 130.228 33.3008 130.228 26.2695C130.228 18.8477 135.597 13.7695 142.04 13.7695C148.483 13.7695 151.705 18.9453 152.681 21.7773L153.267 23.1445L136.573 30.0781C137.842 32.6172 139.795 33.8867 142.626 33.8867C145.457 33.8867 147.312 32.5195 148.776 30.3711ZM135.695 25.8789L146.824 21.2891C146.238 19.7266 144.383 18.6523 142.235 18.6523C139.404 18.6523 135.499 21.0938 135.695 25.8789Z" fill="#EA4335"/>
</g>
</g>
<defs>
<clipPath id="clip0_96_387">
<rect width="390" height="50" fill="white"/>
</clipPath>
</defs>
</svg>
